<?xml version="1.0" encoding="utf-8"?>
<!-- Generator: Adobe Illustrator 26.0.3, SVG Export Plug-In . SVG Version: 6.00 Build 0)  -->
<svg version="1.1" id="Layer_3" xmlns="http://www.w3.org/2000/svg" xmlns:xlink="http://www.w3.org/1999/xlink" x="0px" y="0px"
	 viewBox="0 0 90 90" style="enable-background:new 0 0 90 90;" xml:space="preserve">
<style type="text/css">
	.st0{clip-path:url(#SVGID_00000078751254781880908100000005991989636719177391_);}
	.st1{fill:#FFFFFF;}
	.st2{fill:#9B9B9B;}
</style>
<g>
	<defs>
		<circle id="SVGID_1_" cx="44.5" cy="45" r="45"/>
	</defs>
	<clipPath id="SVGID_00000081624150110600039550000005526131801760448919_">
		<use xlink:href="#SVGID_1_"  style="overflow:visible;"/>
	</clipPath>
	<g style="clip-path:url(#SVGID_00000081624150110600039550000005526131801760448919_);">
		<g id="Layer_2_00000147934966336392100410000005270003806304695480_">
			<circle class="st1" cx="44.5" cy="43.8" r="48.6"/>
			<path class="st2" d="M74.1,39.1c12.3-6.8,6.6-20.1,6.6-20.1c-10.9,1.5-13.5,9.7-14.2,12.9C55,23,44.6,24,44.6,24s-10.4-1-22,7.9
				c-0.6-3.2-3.3-11.4-14.2-13c0,0-5.6,13.3,6.7,20.2c-4,4.8-7.3,10.1-9.9,15.8c0,0,17.4-15.6,30.2-13.5c3.3,0.4,6.1,5.3,0.6,20
				c2.8-0.7,5.8-1.1,8.7-1.3c2.9,0.1,5.9,0.5,8.7,1.3c-5.6-14.7-2.8-19.6,0.5-20C66.6,39.3,84,54.9,84,54.9
				C81.4,49.2,78.1,43.9,74.1,39.1z M11.5,24c7.7,2.7,8,8.2,7.8,10.7c-0.7,0.7-1.4,1.4-2.1,2.1C8.3,32.6,11.5,24,11.5,24z M77.7,24
				c0,0,3.1,8.5-5.7,12.8c-0.7-0.8-1.4-1.5-2.2-2.1C69.6,32.1,70.1,26.6,77.7,24z"/>
			<ellipse cx="44.6" cy="65.9" rx="11.5" ry="4.5"/>
			<path d="M58.4,47.4c-5.5,2.8,0.5,12.3,0.5,12.3s17.7,1.5,17.3,14.9c0,0,6-4.6,8.4-11.6C84.6,63,67.8,42.4,58.4,47.4z M64,58
				c-2.1,0-3.8-1.7-3.8-3.8c0-2.1,1.7-3.8,3.8-3.8c2.1,0,3.8,1.7,3.8,3.8c0,0,0,0,0,0C67.8,56.3,66.1,58,64,58L64,58z"/>
			<path d="M4.6,63C7,70,13,74.6,13,74.6c-0.4-13.5,17.3-14.9,17.3-14.9s6-9.4,0.5-12.3C21.4,42.4,4.6,63,4.6,63z M21.4,54.3
				c0-2.1,1.6-3.8,3.7-3.8c2.1,0,3.8,1.6,3.8,3.7c0,2.1-1.6,3.8-3.7,3.8c0,0,0,0,0,0C23.1,58,21.4,56.3,21.4,54.3z"/>
			<circle class="st1" cx="178.1" cy="124.7" r="48.6"/>
		</g>
	</g>
</g>
</svg>
